<svg width="67" height="67" viewBox="0 0 67 67" fill="none" xmlns="http://www.w3.org/2000/svg">
<path d="M27.2188 0.5H39.7812C41.3145 0.5 42.7849 1.10917 43.8691 2.19336C44.9533 3.27755 45.5625 4.74797 45.5625 6.28125V13.0625H64.9062C65.3289 13.0625 65.7343 13.2304 66.0332 13.5293C66.3321 13.8282 66.5 14.2336 66.5 14.6562V56.5312C66.5 59.1751 65.4496 61.7106 63.5801 63.5801C61.7106 65.4496 59.1751 66.5 56.5312 66.5H10.4688C7.82487 66.5 5.28943 65.4496 3.41992 63.5801C1.55042 61.7106 0.5 59.1751 0.5 56.5312V14.6562C0.5 14.2336 0.667911 13.8282 0.966797 13.5293C1.22839 13.2677 1.57157 13.1065 1.93652 13.0703L2.09375 13.0625H21.4375V6.28125C21.4375 4.74797 22.0467 3.27755 23.1309 2.19336C24.2151 1.10917 25.6855 0.5 27.2188 0.5ZM3.6875 56.5312C3.6875 58.3297 4.4021 60.0544 5.67383 61.3262C6.86615 62.5185 8.45663 63.2206 10.1328 63.3037L10.4688 63.3125H56.5312C58.3297 63.3125 60.0544 62.5979 61.3262 61.3262C62.5979 60.0544 63.3125 58.3297 63.3125 56.5312V16.25H3.6875V56.5312ZM47.6562 42.375V53.9375H36.0938V42.375H47.6562ZM30.9062 42.375V53.9375H19.3438V42.375H30.9062ZM47.6562 25.625V37.1875H36.0938V25.625H47.6562ZM30.9062 25.625V37.1875H19.3438V25.625H30.9062ZM27.2188 3.6875C26.5308 3.6875 25.8712 3.96084 25.3848 4.44727C24.8983 4.93369 24.625 5.59335 24.625 6.28125V13.0625H42.375V6.28125C42.375 5.59335 42.1017 4.93369 41.6152 4.44727C41.1288 3.96084 40.4692 3.6875 39.7812 3.6875H27.2188Z" fill="#2F6BFF" stroke="#2F6BFF"/>
</svg>
