<svg width="55" height="69" viewBox="0 0 55 69" fill="none" xmlns="http://www.w3.org/2000/svg">
<mask id="path-1-inside-1_2319_586" fill="white">
<path d="M7.30469 4.3125C6.50697 4.3125 5.74192 4.63055 5.17784 5.19667C4.61377 5.7628 4.29687 6.53063 4.29688 7.33125V64.6875H10.3125V55.6313C10.3125 54.6019 10.7199 53.6147 11.4452 52.8868C12.1704 52.1589 13.154 51.75 14.1797 51.75H40.8203C41.846 51.75 42.8296 52.1589 43.5548 52.8868C44.2801 53.6147 44.6875 54.6019 44.6875 55.6313V64.6875H50.7031V33.2063C50.7031 32.4056 50.3862 31.6378 49.8222 31.0717C49.2581 30.5055 48.493 30.1875 47.6953 30.1875H39.1016C37.9156 30.1875 36.9531 29.2215 36.9531 28.0313V7.33125C36.9531 6.93482 36.8753 6.54228 36.7242 6.17602C36.573 5.80977 36.3515 5.47699 36.0722 5.19667C35.7929 4.91635 35.4613 4.69399 35.0964 4.54229C34.7314 4.39058 34.3403 4.3125 33.9453 4.3125H7.30469ZM2.14844 69C0.9625 69 0 68.034 0 66.8438V7.33125C0 5.38688 0.769598 3.52215 2.13949 2.14727C3.50939 0.772398 5.36736 0 7.30469 0H33.9453C35.8826 0 37.7406 0.772398 39.1105 2.14727C40.4804 3.52215 41.25 5.38688 41.25 7.33125V25.875H47.6953C49.6326 25.875 51.4906 26.6474 52.8605 28.0223C54.2304 29.3972 55 31.2619 55 33.2063V66.8438C55 68.034 54.0375 69 52.8516 69H2.14844ZM14.6094 64.6875H25.3516V56.0625H14.6094V64.6875ZM29.6484 64.6875H40.3906V56.0625H29.6484V64.6875ZM17.1875 17.25C17.1875 18.165 16.8253 19.0425 16.1807 19.6895C15.536 20.3365 14.6617 20.7 13.75 20.7C12.8383 20.7 11.964 20.3365 11.3193 19.6895C10.6747 19.0425 10.3125 18.165 10.3125 17.25C10.3125 16.335 10.6747 15.4575 11.3193 14.8105C11.964 14.1635 12.8383 13.8 13.75 13.8C14.6617 13.8 15.536 14.1635 16.1807 14.8105C16.8253 15.4575 17.1875 16.335 17.1875 17.25ZM13.75 32.775C14.6617 32.775 15.536 32.4115 16.1807 31.7645C16.8253 31.1175 17.1875 30.24 17.1875 29.325C17.1875 28.41 16.8253 27.5325 16.1807 26.8855C15.536 26.2385 14.6617 25.875 13.75 25.875C12.8383 25.875 11.964 26.2385 11.3193 26.8855C10.6747 27.5325 10.3125 28.41 10.3125 29.325C10.3125 30.24 10.6747 31.1175 11.3193 31.7645C11.964 32.4115 12.8383 32.775 13.75 32.775ZM17.1875 41.4C17.1875 42.315 16.8253 43.1925 16.1807 43.8395C15.536 44.4865 14.6617 44.85 13.75 44.85C12.8383 44.85 11.964 44.4865 11.3193 43.8395C10.6747 43.1925 10.3125 42.315 10.3125 41.4C10.3125 40.485 10.6747 39.6075 11.3193 38.9605C11.964 38.3135 12.8383 37.95 13.75 37.95C14.6617 37.95 15.536 38.3135 16.1807 38.9605C16.8253 39.6075 17.1875 40.485 17.1875 41.4ZM27.5 20.7C28.4117 20.7 29.286 20.3365 29.9307 19.6895C30.5753 19.0425 30.9375 18.165 30.9375 17.25C30.9375 16.335 30.5753 15.4575 29.9307 14.8105C29.286 14.1635 28.4117 13.8 27.5 13.8C26.5883 13.8 25.714 14.1635 25.0693 14.8105C24.4247 15.4575 24.0625 16.335 24.0625 17.25C24.0625 18.165 24.4247 19.0425 25.0693 19.6895C25.714 20.3365 26.5883 20.7 27.5 20.7ZM30.9375 29.325C30.9375 30.24 30.5753 31.1175 29.9307 31.7645C29.286 32.4115 28.4117 32.775 27.5 32.775C26.5883 32.775 25.714 32.4115 25.0693 31.7645C24.4247 31.1175 24.0625 30.24 24.0625 29.325C24.0625 28.41 24.4247 27.5325 25.0693 26.8855C25.714 26.2385 26.5883 25.875 27.5 25.875C28.4117 25.875 29.286 26.2385 29.9307 26.8855C30.5753 27.5325 30.9375 28.41 30.9375 29.325ZM27.5 44.85C28.4117 44.85 29.286 44.4865 29.9307 43.8395C30.5753 43.1925 30.9375 42.315 30.9375 41.4C30.9375 40.485 30.5753 39.6075 29.9307 38.9605C29.286 38.3135 28.4117 37.95 27.5 37.95C26.5883 37.95 25.714 38.3135 25.0693 38.9605C24.4247 39.6075 24.0625 40.485 24.0625 41.4C24.0625 42.315 24.4247 43.1925 25.0693 43.8395C25.714 44.4865 26.5883 44.85 27.5 44.85ZM44.6875 41.4C44.6875 42.315 44.3253 43.1925 43.6807 43.8395C43.036 44.4865 42.1617 44.85 41.25 44.85C40.3383 44.85 39.464 44.4865 38.8193 43.8395C38.1747 43.1925 37.8125 42.315 37.8125 41.4C37.8125 40.485 38.1747 39.6075 38.8193 38.9605C39.464 38.3135 40.3383 37.95 41.25 37.95C42.1617 37.95 43.036 38.3135 43.6807 38.9605C44.3253 39.6075 44.6875 40.485 44.6875 41.4Z"/>
</mask>
<path d="M7.30469 4.3125C6.50697 4.3125 5.74192 4.63055 5.17784 5.19667C4.61377 5.7628 4.29687 6.53063 4.29688 7.33125V64.6875H10.3125V55.6313C10.3125 54.6019 10.7199 53.6147 11.4452 52.8868C12.1704 52.1589 13.154 51.75 14.1797 51.75H40.8203C41.846 51.75 42.8296 52.1589 43.5548 52.8868C44.2801 53.6147 44.6875 54.6019 44.6875 55.6313V64.6875H50.7031V33.2063C50.7031 32.4056 50.3862 31.6378 49.8222 31.0717C49.2581 30.5055 48.493 30.1875 47.6953 30.1875H39.1016C37.9156 30.1875 36.9531 29.2215 36.9531 28.0313V7.33125C36.9531 6.93482 36.8753 6.54228 36.7242 6.17602C36.573 5.80977 36.3515 5.47699 36.0722 5.19667C35.7929 4.91635 35.4613 4.69399 35.0964 4.54229C34.7314 4.39058 34.3403 4.3125 33.9453 4.3125H7.30469ZM2.14844 69C0.9625 69 0 68.034 0 66.8438V7.33125C0 5.38688 0.769598 3.52215 2.13949 2.14727C3.50939 0.772398 5.36736 0 7.30469 0H33.9453C35.8826 0 37.7406 0.772398 39.1105 2.14727C40.4804 3.52215 41.25 5.38688 41.25 7.33125V25.875H47.6953C49.6326 25.875 51.4906 26.6474 52.8605 28.0223C54.2304 29.3972 55 31.2619 55 33.2063V66.8438C55 68.034 54.0375 69 52.8516 69H2.14844ZM14.6094 64.6875H25.3516V56.0625H14.6094V64.6875ZM29.6484 64.6875H40.3906V56.0625H29.6484V64.6875ZM17.1875 17.25C17.1875 18.165 16.8253 19.0425 16.1807 19.6895C15.536 20.3365 14.6617 20.7 13.75 20.7C12.8383 20.7 11.964 20.3365 11.3193 19.6895C10.6747 19.0425 10.3125 18.165 10.3125 17.25C10.3125 16.335 10.6747 15.4575 11.3193 14.8105C11.964 14.1635 12.8383 13.8 13.75 13.8C14.6617 13.8 15.536 14.1635 16.1807 14.8105C16.8253 15.4575 17.1875 16.335 17.1875 17.25ZM13.75 32.775C14.6617 32.775 15.536 32.4115 16.1807 31.7645C16.8253 31.1175 17.1875 30.24 17.1875 29.325C17.1875 28.41 16.8253 27.5325 16.1807 26.8855C15.536 26.2385 14.6617 25.875 13.75 25.875C12.8383 25.875 11.964 26.2385 11.3193 26.8855C10.6747 27.5325 10.3125 28.41 10.3125 29.325C10.3125 30.24 10.6747 31.1175 11.3193 31.7645C11.964 32.4115 12.8383 32.775 13.75 32.775ZM17.1875 41.4C17.1875 42.315 16.8253 43.1925 16.1807 43.8395C15.536 44.4865 14.6617 44.85 13.75 44.85C12.8383 44.85 11.964 44.4865 11.3193 43.8395C10.6747 43.1925 10.3125 42.315 10.3125 41.4C10.3125 40.485 10.6747 39.6075 11.3193 38.9605C11.964 38.3135 12.8383 37.95 13.75 37.95C14.6617 37.95 15.536 38.3135 16.1807 38.9605C16.8253 39.6075 17.1875 40.485 17.1875 41.4ZM27.5 20.7C28.4117 20.7 29.286 20.3365 29.9307 19.6895C30.5753 19.0425 30.9375 18.165 30.9375 17.25C30.9375 16.335 30.5753 15.4575 29.9307 14.8105C29.286 14.1635 28.4117 13.8 27.5 13.8C26.5883 13.8 25.714 14.1635 25.0693 14.8105C24.4247 15.4575 24.0625 16.335 24.0625 17.25C24.0625 18.165 24.4247 19.0425 25.0693 19.6895C25.714 20.3365 26.5883 20.7 27.5 20.7ZM30.9375 29.325C30.9375 30.24 30.5753 31.1175 29.9307 31.7645C29.286 32.4115 28.4117 32.775 27.5 32.775C26.5883 32.775 25.714 32.4115 25.0693 31.7645C24.4247 31.1175 24.0625 30.24 24.0625 29.325C24.0625 28.41 24.4247 27.5325 25.0693 26.8855C25.714 26.2385 26.5883 25.875 27.5 25.875C28.4117 25.875 29.286 26.2385 29.9307 26.8855C30.5753 27.5325 30.9375 28.41 30.9375 29.325ZM27.5 44.85C28.4117 44.85 29.286 44.4865 29.9307 43.8395C30.5753 43.1925 30.9375 42.315 30.9375 41.4C30.9375 40.485 30.5753 39.6075 29.9307 38.9605C29.286 38.3135 28.4117 37.95 27.5 37.95C26.5883 37.95 25.714 38.3135 25.0693 38.9605C24.4247 39.6075 24.0625 40.485 24.0625 41.4C24.0625 42.315 24.4247 43.1925 25.0693 43.8395C25.714 44.4865 26.5883 44.85 27.5 44.85ZM44.6875 41.4C44.6875 42.315 44.3253 43.1925 43.6807 43.8395C43.036 44.4865 42.1617 44.85 41.25 44.85C40.3383 44.85 39.464 44.4865 38.8193 43.8395C38.1747 43.1925 37.8125 42.315 37.8125 41.4C37.8125 40.485 38.1747 39.6075 38.8193 38.9605C39.464 38.3135 40.3383 37.95 41.25 37.95C42.1617 37.95 43.036 38.3135 43.6807 38.9605C44.3253 39.6075 44.6875 40.485 44.6875 41.4Z" fill="#2F6BFF" stroke="#2F6BFF" mask="url(#path-1-inside-1_2319_586)"/>
</svg>
