<svg width="86" height="73" viewBox="0 0 86 73" fill="none" xmlns="http://www.w3.org/2000/svg">
<path d="M2 55.9601C11.116 65.7358 23.8237 64.2785 31.3467 64.0484M2 43.7323C10.2943 53.199 21.2949 53.9484 31.7236 52.7607M30.6564 21.9941C-2.54707 15.0299 -6.64491 45.0778 30.6564 41.6155M36.8294 63.2968C45.4919 72.2813 74.7334 74.2974 83.0802 62.3545M36.8294 49.5635C43.3181 61.5064 73.4624 61.3443 83.0802 50.5058M36.8294 37.8069C50.372 52.0047 75.1782 47.1465 83.0802 37.8069" stroke="#2F6BFF" stroke-width="4" stroke-linecap="round" stroke-linejoin="round"/>
<path d="M36.8296 26.0479C45.3671 37.8067 73.4691 38.1485 83.0804 26.2363" stroke="#2F6BFF" stroke-width="4" stroke-linecap="round" stroke-linejoin="round"/>
<path d="M59.9944 23.6901C71.942 23.6901 81.6275 18.8346 81.6275 12.845C81.6275 6.85549 71.942 2 59.9944 2C48.0468 2 38.3613 6.85549 38.3613 12.845C38.3613 18.8346 48.0468 23.6901 59.9944 23.6901Z" stroke="#2F6BFF" stroke-width="4" stroke-linecap="round" stroke-linejoin="round"/>
<path d="M30.6562 21.9941V41.6156" stroke="#2F6BFF" stroke-width="4" stroke-linecap="round" stroke-linejoin="round"/>
</svg>
