<svg width="62" height="57" viewBox="0 0 62 57" fill="none" xmlns="http://www.w3.org/2000/svg">
<path d="M8.76562 8.77344H52.5928C54.9154 8.77348 57.1428 9.69654 58.7852 11.3389C60.4274 12.9812 61.3506 15.2087 61.3506 17.5312V48.21C61.3506 50.5326 60.4274 52.76 58.7852 54.4023C57.1428 56.0447 54.9154 56.9677 52.5928 56.9678H8.76562C6.44298 56.9678 4.21561 56.0447 2.57324 54.4023C0.93087 52.76 0.0078125 50.5326 0.0078125 48.21V17.5312L0.0185547 17.0967C0.125963 14.9322 1.03354 12.8786 2.57324 11.3389C4.21561 9.69649 6.44296 8.77344 8.76562 8.77344ZM8.76562 13.1406C7.60118 13.1406 6.48452 13.6034 5.66113 14.4268C4.83775 15.2501 4.375 16.3668 4.375 17.5312V48.21C4.375 49.3744 4.83775 50.4911 5.66113 51.3145C6.48451 52.1378 7.6012 52.6006 8.76562 52.6006H52.5928C53.7571 52.6005 54.8739 52.1378 55.6973 51.3145C56.5206 50.4911 56.9834 49.3743 56.9834 48.21V17.5312C56.9834 16.3669 56.5205 15.2501 55.6973 14.4268C54.8739 13.6034 53.7571 13.1407 52.5928 13.1406H8.76562Z" fill="#2F6BFF" stroke="#064CAC" stroke-width="0.015625"/>
<path d="M30.6792 21.9219C31.2582 21.922 31.8137 22.1512 32.2231 22.5605C32.6325 22.9699 32.8627 23.5255 32.8628 24.1045V30.6787H32.8706V30.6865H39.4438C40.023 30.6865 40.5793 30.9167 40.9888 31.3262C41.3981 31.7356 41.6274 32.2912 41.6274 32.8701C41.6274 33.449 41.398 34.0046 40.9888 34.4141C40.5793 34.8236 40.023 35.0537 39.4438 35.0537H32.8706V35.0615H32.8628V41.6357C32.8628 42.2148 32.6325 42.7702 32.2231 43.1797C31.8137 43.5891 31.2582 43.8192 30.6792 43.8193C30.1002 43.8193 29.5447 43.5891 29.1353 43.1797C28.7258 42.7702 28.4956 42.2149 28.4956 41.6357V35.0615H28.4878V35.0537H21.9136C21.3345 35.0537 20.7791 34.8236 20.3696 34.4141C19.9602 34.0046 19.73 33.4492 19.73 32.8701C19.73 32.2911 19.9602 31.7356 20.3696 31.3262C20.7791 30.9168 21.3346 30.6865 21.9136 30.6865H28.4878V30.6787H28.4956V24.1045C28.4957 23.5255 28.7259 22.9699 29.1353 22.5605C29.5447 22.1513 30.1003 21.9219 30.6792 21.9219ZM17.5308 0.0078125H43.8267C44.4057 0.0078125 44.9611 0.238062 45.3706 0.647461C45.7801 1.05696 46.0103 1.61229 46.0103 2.19141V10.957C46.0102 11.5361 45.78 12.0915 45.3706 12.501C44.9611 12.9103 44.4056 13.1406 43.8267 13.1406H17.5308C16.9517 13.1406 16.3963 12.9104 15.9868 12.501C15.5774 12.0915 15.3472 11.5361 15.3472 10.957V2.19141C15.3472 1.61229 15.5773 1.05696 15.9868 0.647461C16.3963 0.237967 16.9516 0.0078125 17.5308 0.0078125ZM19.7222 4.38281H19.7144V8.76562H19.7222V8.77344H41.6353V8.76562H41.6431V4.38281H41.6353V4.375H19.7222V4.38281Z" fill="#2F6BFF" stroke="#064CAC" stroke-width="0.015625"/>
</svg>
