<svg width="73" height="59" viewBox="0 0 73 59" fill="none" xmlns="http://www.w3.org/2000/svg">
<path d="M10.0693 0.03125H40.2754C41.6026 0.03125 42.8752 0.546614 43.8135 1.46289C44.7517 2.37914 45.2793 3.62154 45.2793 4.91699V24.6143H62.9307C64.2578 24.6143 65.5305 25.1297 66.4688 26.0459C67.407 26.9622 67.9346 28.2045 67.9346 29.5V54.1143H70.4824C71.142 54.1143 71.7751 54.3709 72.2412 54.8262C72.7071 55.2814 72.9688 55.8987 72.9688 56.542C72.9687 57.1853 72.7072 57.8027 72.2412 58.2578C71.7751 58.7131 71.142 58.9688 70.4824 58.9688H2.51758C1.85802 58.9688 1.22495 58.7131 0.758789 58.2578C0.292776 57.8027 0.0313387 57.1853 0.03125 56.542C0.03125 55.8987 0.292902 55.2814 0.758789 54.8262C1.22495 54.3709 1.85802 54.1143 2.51758 54.1143H5.06543V4.91699C5.06543 3.62156 5.59307 2.37914 6.53125 1.46289C7.46948 0.546613 8.74216 0.03125 10.0693 0.03125ZM10.0381 54.1143H15.1348V39.333C15.1349 38.6897 15.3963 38.0723 15.8623 37.6172C16.3285 37.1619 16.9615 36.9062 17.6211 36.9062H32.7246C33.384 36.9064 34.0164 37.1621 34.4824 37.6172C34.9485 38.0723 35.2099 38.6897 35.21 39.333V54.1143H40.3066V4.88574H10.0381V54.1143ZM20.1064 54.1143H30.2383V41.7607H20.1064V54.1143ZM45.2793 54.1143H62.9619V29.4688H45.2793V54.1143ZM25.1729 9.86426C25.8323 9.86437 26.4646 10.121 26.9307 10.5762C27.3966 11.0314 27.6582 11.6487 27.6582 12.292V17.2393H32.7246C33.384 17.2394 34.0164 17.496 34.4824 17.9512C34.9484 18.4064 35.21 19.0237 35.21 19.667C35.2099 20.3103 34.9485 20.9277 34.4824 21.3828C34.0164 21.8379 33.384 22.0936 32.7246 22.0938H27.6582V27.042C27.6581 27.6853 27.3967 28.3027 26.9307 28.7578C26.4646 29.2129 25.8322 29.4686 25.1729 29.4688C24.5133 29.4688 23.8802 29.2131 23.4141 28.7578C22.948 28.3027 22.6866 27.6853 22.6865 27.042V22.0938H17.6211C16.9615 22.0938 16.3285 21.8381 15.8623 21.3828C15.3963 20.9277 15.1349 20.3103 15.1348 19.667C15.1348 19.0237 15.3964 18.4064 15.8623 17.9512C16.3285 17.4959 16.9615 17.2393 17.6211 17.2393H22.6865V12.292C22.6865 11.6487 22.9481 11.0314 23.4141 10.5762C23.8802 10.1209 24.5133 9.86426 25.1729 9.86426Z" fill="#2F6BFF" stroke="#2F6BFF" stroke-width="0.0625"/>
</svg>
