<svg width="66" height="66" viewBox="0 0 66 66" fill="none" xmlns="http://www.w3.org/2000/svg">
<path d="M11 0.25H55C56.4117 0.25 57.81 0.528121 59.1143 1.06836C60.4184 1.60859 61.6034 2.4003 62.6016 3.39844C63.5997 4.39657 64.3914 5.58164 64.9316 6.88574C65.4719 8.18999 65.75 9.58829 65.75 11V55C65.75 57.8511 64.6176 60.5855 62.6016 62.6016C60.5855 64.6176 57.8511 65.75 55 65.75H11C9.58829 65.75 8.18999 65.4719 6.88574 64.9316C5.58164 64.3914 4.39657 63.5997 3.39844 62.6016C1.38242 60.5855 0.25 57.8511 0.25 55V11C0.25 8.14892 1.38242 5.41445 3.39844 3.39844C5.41445 1.38242 8.14892 0.25 11 0.25ZM61.4238 15.6094L33.1143 43.6064C32.2698 44.4413 31.1346 44.9171 29.9473 44.9326C28.7601 44.9481 27.613 44.5027 26.7471 43.6904L22.0166 39.2529C21.7615 39.014 21.4237 38.8827 21.0742 38.8877C20.7263 38.8928 20.3925 39.0305 20.1436 39.2773L4.22852 55.0469L4.15039 55.124L4.1543 55.2324C4.21468 57.0075 4.96235 58.6903 6.23926 59.9248C7.43662 61.0822 9.0121 61.7614 10.668 61.8418L11 61.8496H20.0498V45.9502H17.2441L18.9609 44.25H20.0498V43.1709L21.1172 42.1113L21.75 42.7041V44.25H23.3975L24.8975 45.6582L24.8984 45.6592C25.0068 45.7604 25.118 45.8567 25.2305 45.9502H21.75V61.8496H44.25V45.9502H34.543C34.6141 45.8911 34.6855 45.8318 34.7549 45.7695L35.0127 45.5264L36.3037 44.25H44.25V36.3906L45.9502 34.707V44.25H61.8496V15.1885L61.4238 15.6094ZM45.9502 61.8496H55C56.8167 61.8496 58.5591 61.1284 59.8438 59.8438C61.1284 58.5591 61.8496 56.8167 61.8496 55V45.9502H45.9502V61.8496ZM45.9502 20.0498H47.4824L44.25 23.291V21.75H21.75V32.0977C21.183 32.0498 20.6124 32.0685 20.0498 32.1533V21.75H4.15039V49.6826L4.5752 49.2617L17.9121 36.0947C18.76 35.2579 19.9005 34.7841 21.0918 34.7725C22.2829 34.7609 23.4318 35.2123 24.2959 36.0322L29.0264 40.5205C29.2816 40.763 29.6216 40.8961 29.9736 40.8916C30.2817 40.8876 30.5775 40.7781 30.8135 40.584L30.9111 40.4961L61.6123 9.70215L61.71 9.60449L61.6787 9.46973C61.3322 7.95799 60.4826 6.60894 59.2695 5.64258C58.0563 4.67613 56.5511 4.15001 55 4.15039H45.9502V20.0498ZM11 4.15039C9.18327 4.15039 7.44087 4.87163 6.15625 6.15625C4.87163 7.44087 4.15039 9.18327 4.15039 11V20.0498H20.0498V4.15039H11ZM21.75 20.0498H44.25V4.15039H21.75V20.0498Z" fill="#2F6BFF" stroke="#2F6BFF" stroke-width="0.5"/>
</svg>
