<svg width="73" height="71" viewBox="0 0 73 71" fill="none" xmlns="http://www.w3.org/2000/svg">
<path d="M2 69H41.8077M36.5 69V55.686H7.30769V69M40.6772 3.55926L21.6491 22.6515C20.654 23.6502 20.0951 25.0045 20.0951 26.4167C20.0951 27.8288 20.654 29.1831 21.6491 30.1818L30.0565 38.6176C31.0518 39.6159 32.4016 40.1768 33.809 40.1768C35.2164 40.1768 36.5662 39.6159 37.5615 38.6176L56.5896 19.5254C57.5847 18.5267 58.1436 17.1723 58.1436 15.7602C58.1436 14.348 57.5847 12.9937 56.5896 11.995L48.1769 3.55926C47.1816 2.56087 45.8318 2 44.4244 2C43.017 2 41.6672 2.56087 40.6718 3.55926M47.1154 29.0581L71 53.0233" stroke="#2F6BFF" stroke-width="4" stroke-linecap="round" stroke-linejoin="round"/>
</svg>
